<svg xmlns="http://www.w3.org/2000/svg" version="1.1" xmlns:xlink="http://www.w3.org/1999/xlink" xmlns:svgjs="http://svgjs.com/svgjs" width="512" height="512" x="0" y="0" viewBox="0 0 60 60" style="enable-background:new 0 0 512 512" xml:space="preserve" class=""><g><g fill="#f5ac37"><rect width="26" height="26" x="1" y="1" rx="2" fill="#7d77d8" data-original="#f5ac37" class=""></rect><rect width="26" height="26" x="33" y="1" rx="2" fill="#7d77d8" data-original="#f5ac37" class=""></rect><rect width="26" height="26" x="1" y="33" rx="2" fill="#7d77d8" data-original="#f5ac37" class=""></rect></g><rect width="26" height="26" x="33" y="33" fill="#da8aa3" rx="2" data-original="#dfeef4" class=""></rect><path fill="#7d77d8" d="M52 50H40a1 1 0 0 1 0-2h12a1 1 0 0 1 0 2zM52 44H40a1 1 0 0 1 0-2h12a1 1 0 0 1 0 2z" data-original="#afccdd" class=""></path><path fill="#ffffff" d="M19.707 40.293a1 1 0 0 0-1.414 0L14 44.586l-4.293-4.293a1 1 0 0 0-1.414 1.414L12.586 46l-4.293 4.293a1 1 0 1 0 1.414 1.414L14 47.414l4.293 4.293a1 1 0 0 0 1.414-1.414L15.414 46l4.293-4.293a1 1 0 0 0 0-1.414zM20 13h-5V8a1 1 0 0 0-2 0v5H8a1 1 0 0 0 0 2h5v5a1 1 0 0 0 2 0v-5h5a1 1 0 0 0 0-2zM52 13H40a1 1 0 0 0 0 2h12a1 1 0 0 0 0-2z" data-original="#ffffff" class=""></path></g></svg>